inDegrees=no
num_controls=7
num_derivatives=13
num_iterations=216
num_multipliers=7
num_parameters=0
num_slacks=7
num_states=26
objective=5.365869
objective_accelerations=0.375684
objective_balance=0.020922
objective_effort=0.424778
objective_height=4.470801
objective_ligament=0.073685
solver_duration=2237.458028
status=Solve_Succeeded
success=true
DataType=double
version=3
OpenSimVersion=4.4-2022-07-23-0e9fedc
endheader
time	/jointset/ground_pelvis/pelvis_tilt/value	/jointset/ground_pelvis/pelvis_tx/value	/jointset/ground_pelvis/pelvis_ty/value	/jointset/hip_l/hip_flexion_l/value	/jointset/hip_l/hip_adduction_l/value	/jointset/hip_l/hip_rotation_l/value	/jointset/back/lumbar_extension/value	/jointset/patellofemoral_l/patellar_flexion_l/value	/jointset/knee_l/knee_flexion_l/value	/jointset/knee_l/knee_adduction_l/value	/jointset/knee_l/knee_rotation_l/value	/jointset/ankle_l/ankle_angle_l/value	/jointset/subtalar_l/subtalar_angle_l/value	/jointset/ground_pelvis/pelvis_tilt/speed	/jointset/ground_pelvis/pelvis_tx/speed	/jointset/ground_pelvis/pelvis_ty/speed	/jointset/hip_l/hip_flexion_l/speed	/jointset/hip_l/hip_adduction_l/speed	/jointset/hip_l/hip_rotation_l/speed	/jointset/back/lumbar_extension/speed	/jointset/patellofemoral_l/patellar_flexion_l/speed	/jointset/knee_l/knee_flexion_l/speed	/jointset/knee_l/knee_adduction_l/speed	/jointset/knee_l/knee_rotation_l/speed	/jointset/ankle_l/ankle_angle_l/speed	/jointset/subtalar_l/subtalar_angle_l/speed	/forceset/tau_hip_flexion_l	/forceset/tau_hip_adduction_l	/forceset/tau_hip_rotation_l	/forceset/tau_knee_flexion_l	/forceset/tau_ankle_angle_l	/forceset/tau_subtalar_angle_l	/forceset/tau_lumbar_extension	lambda_cid13_p0	lambda_cid13_p1	lambda_cid13_p2	lambda_cid13_p3	lambda_cid13_p4	lambda_cid13_p5	lambda_cid14_p0	/jointset/ground_pelvis/pelvis_tilt/accel	/jointset/ground_pelvis/pelvis_tx/accel	/jointset/ground_pelvis/pelvis_ty/accel	/jointset/hip_l/hip_flexion_l/accel	/jointset/hip_l/hip_adduction_l/accel	/jointset/hip_l/hip_rotation_l/accel	/jointset/back/lumbar_extension/accel	/jointset/patellofemoral_l/patellar_flexion_l/accel	/jointset/knee_l/knee_flexion_l/accel	/jointset/knee_l/knee_adduction_l/accel	/jointset/knee_l/knee_rotation_l/accel	/jointset/ankle_l/ankle_angle_l/accel	/jointset/subtalar_l/subtalar_angle_l/accel	gamma_cid13_p0	gamma_cid13_p1	gamma_cid13_p2	gamma_cid13_p3	gamma_cid13_p4	gamma_cid13_p5	gamma_cid14_p0
1	-0.0865771912193105	-0.06833471006089407	0.7482133796822565	1.12494392406884	-0.3317718232429715	-0.002424332036338947	-0.9599310885968813	1.149536688266071	1.149536688266072	-0.08992419473109899	-0.1745328979364661	0.1900605340834819	0.02496278909390911	0.108823387892389	0.02788733112670685	0.06430346516667429	-0.2946749093883883	6.866360925872491e-05	-0.06448702781197484	-0.002142947441528479	-0.1652184012872804	-0.1652184012872855	0.0002425805687348345	-2.302444103229228e-06	0.01190906242556937	0.005661789082129627	-0.3471820539675023	0.01479883282967006	-0.004443315215062409	-0.3156799444440503	0.07663227062819737	0.04635397340995074	0.4092578269645319	-24.67166038848272	-16.55491439749807	3.033926456996039	6.800374813082151	-778.675708342134	-79.59365009179412	-2.052083208106249	0.7660414028838141	0.1382761053282187	1.132065217301948	-4.108091056843588	-0.003990639114680287	-1.383517762401798	0.4120867273434675	-4.060448269794179	-4.060448269794152	-0.2064650198726804	-0.0111526741450964	-0.996125670609192	-0.3621830642071837	-9.089650676286965e-09	-7.716467023372752e-09	3.721824925807353e-08	4.243105560337443e-09	-2.139881431658046e-08	4.416614057219653e-08	-9.846459093937555e-09
1.01	-0.08545113322042253	-0.06804886892362753	0.7489127927704592	1.121792759284392	-0.3317707815494244	-0.003138553494016013	-0.9599310885968813	1.147681956484582	1.147681956484706	-0.08993096938493345	-0.1745328975593659	0.1901299923301181	0.02500203372177617	0.1163810860294926	0.02928766187987091	0.07556750071323634	-0.3355353745921501	0.0001460106827195414	-0.07835026092323726	0.002174760326957457	-0.2057160479895629	-0.2057160479895705	-0.001597572062089117	1.535277089543585e-06	0.001980397562018035	0.002193718318842847	-0.3464325402573507	0.01491875454652562	-0.004477998075924864	-0.3153634503514646	0.07648863809298251	0.04644771180153473	0.4089374226657861	-24.68620296165476	-16.6059202790441	3.056726411572937	6.668217951006355	-778.3328378374166	-79.67165303127783	-2.093392399260844	0.7495638929881092	0.1419282523554037	1.121819585301942	-4.071625221743492	0.01454567939979313	-1.386687408866956	0.4464920920477224	-4.042634234592618	-4.042634234593017	-0.1728061972949119	0.006037060981830243	-0.9915665073702377	-0.3381351890787195	-1.416345666835212e-08	-1.505332952430082e-08	5.035344892434537e-08	9.244815159892505e-09	-2.681497735656931e-08	4.742400104552592e-08	-1.288294131659219e-08
1.02	-0.08424971226539016	-0.0677488211404204	0.7497244955865211	1.118233669653985	-0.3317687767253781	-0.003991199547481391	-0.9598869482113096	1.145422605963242	1.145422605963487	-0.08995614872759751	-0.174532881791905	0.1901000980054904	0.02500679442067251	0.1238959791211745	0.03072866031482841	0.08676141073854514	-0.3762598785799532	0.0002612897091135635	-0.09217194696963936	0.006687639713306048	-0.2461421492577385	-0.2461421492577489	-0.003438357197219411	7.756274969397356e-07	-0.007961451827218573	-0.001234996712015684	-0.345683026547203	0.01503867626338073	-0.004512680936786298	-0.3150469562588791	0.07634500555776826	0.04654145019311842	0.4086170183670371	-24.71234453131101	-16.65423272366204	3.078340123924985	6.57865783696253	-778.1430209955221	-79.74183165986067	-2.144262937074412	0.7574803937994908	0.1464096416869014	1.118040113051296	-4.080898813651836	0.003595751471960796	-1.375208349429732	0.4511210509159784	-4.0461391829728	-4.046139182972816	-0.2065915207339484	-0.01207214830217258	-0.9987625757462529	-0.3543119177215361	-1.886935006189193e-08	-2.395877387950552e-08	6.240784453632665e-08	1.31151187707858e-08	-3.214843498914328e-08	4.940410874321097e-08	-1.591926380892045e-08
1.03	-0.08297374706076692	-0.06743395038188003	0.7506477698692862	1.114268203053782	-0.3317654164355305	-0.00498177503760763	-0.959795066759659	1.14275939691898	1.142759396919133	-0.08999979300903921	-0.1745328596795095	0.1899709819657797	0.02497758371345564	0.1312514182096236	0.03227350526684319	0.09788031070816942	-0.4167935705205786	0.0004173442148467404	-0.1059324108122872	0.01188375352190266	-0.2864839997388992	-0.2864839997388958	-0.005294332884520388	3.071363371092771e-06	-0.01783775436038049	-0.004589952659289937	-0.3461037951143516	0.01530266746471857	-0.004554360797365281	-0.3143008213530104	0.07613851635178574	0.04677059607814323	0.4097182466068305	-24.78252001523515	-16.76476251254734	3.122574624062891	6.135183666301272	-778.6702378995421	-79.85613427586834	-2.204982999586383	0.7177276660292629	0.1627274211451602	1.106837144440697	-4.033626204362288	0.02259316439901057	-1.37487192662059	0.5831219816063387	-4.025855192814936	-4.025855192812885	-0.1756860628969029	0.006310582729466202	-0.9784663859952184	-0.3235118786708949	-2.35714892452427e-08	-3.288022417199877e-08	7.445121153550905e-08	1.697387742261111e-08	-3.748104868898853e-08	5.1371178147267e-08	-1.895558467134742e-08
1.04	-0.08162559706532647	-0.06710279007398226	0.7516818375928521	1.109898595170153	-0.3317602990277708	-0.006109636471147934	-0.9596453710827673	1.139693239927481	1.139693239927543	-0.09006211414138766	-0.1745328285801179	0.1897438224419587	0.02491533855767791	0.1383329372845375	0.03398657018631144	0.1089200988987045	-0.4570881352649799	0.0006127132915804255	-0.1196291356524662	0.018250484761493	-0.3267317387051495	-0.3267317387051324	-0.007173727378570505	2.573027135518273e-06	-0.02757014864930468	-0.007841886424185164	-0.3465245636815028	0.01556665866605626	-0.004596040657945465	-0.3135546864471418	0.07593202714580369	0.04699974196316809	0.4108194748466219	-24.86443944304941	-16.87263340041495	3.165696835760473	5.732614139769583	-779.3539092140622	-79.96328336330062	-2.275878905002072	0.7026963910924604	0.1800536351775884	1.10221775723345	-4.033073374406992	0.01145866567206356	-1.362460548935976	0.6852445371147292	-4.027316879990751	-4.027316879990726	-0.2112752820837751	-0.01263096272411655	-0.9699809268987134	-0.3337074812457322	-2.603683937925527e-08	-4.178022445939981e-08	8.372025223755589e-08	1.714447572330341e-08	-4.091667295577571e-08	4.976274799520991e-08	-2.126228160627328e-08
1.05	-0.08020787682166212	-0.06675370130618687	0.7528258513490085	1.105127277848157	-0.3317530241762318	-0.007374067787392531	-0.9594266408401392	1.136225163149649	1.136225163149688	-0.09014339974295725	-0.1745328214104206	0.1894199809264549	0.02482107049167401	0.1451760390972433	0.03585487903444185	0.119863598482566	-0.4971288866386376	0.0008517211779879489	-0.1332425837417755	0.02564465241433656	-0.3668587874551245	-0.366858787455127	-0.009085621748727303	-6.988432975315133e-07	-0.03718133782339839	-0.01099352406313669	-0.3462925171977315	0.01580101171910031	-0.004646317933202524	-0.3126790420580823	0.07583578739762308	0.04723398111199702	0.4112514041735855	-24.87236157279303	-16.9976009956474	3.213747373919779	5.341434760973418	-779.3851884396531	-80.08884015276702	-2.357341562437864	0.6698543720044623	0.1937772993866305	1.087549088750765	-3.982612617715584	0.03153657232882678	-1.358627412751898	0.7888661769140876	-4.001669729263077	-4.001669729266051	-0.1814942038887358	0.005910842890014825	-0.9541686900804977	-0.3031640505697044	-2.843228985547604e-08	-5.067955443414173e-08	9.290259524281728e-08	1.719981901302283e-08	-4.429301630277984e-08	4.80425834820243e-08	-2.354617779346474e-08
1.06	-0.07872277810074138	-0.06638521789195899	0.7540787267069611	1.09995694569265	-0.3317430763013881	-0.008774201679294914	-0.9591294962614736	1.132356561712964	1.132356561712982	-0.09024387382610984	-0.1745328297310079	0.189000531363727	0.02469583162021062	0.1518086327357414	0.03786549947280485	0.1306924192579604	-0.536891101967113	0.001147317952544654	-0.1467696507840246	0.03393335196897715	-0.4068366704755878	-0.4068366704756103	-0.01101142369516817	-5.250300140142701e-07	-0.046691758094124	-0.01403604751608187	-0.3460604707139634	0.01603536477214403	-0.004696595208460723	-0.3118033976690229	0.075739547649443	0.04746822026082575	0.4116833335005463	-24.89197040611439	-17.12003323352018	3.260834990040173	4.988687075639496	-779.5735051619084	-80.20873948988694	-2.449777956100452	0.6605947562509279	0.2085159532241006	1.07928199554001	-3.977366165370524	0.02277644330190184	-1.345184339523944	0.8641509174741423	-3.997483734088422	-3.997483734088471	-0.2140567973405881	-0.01194182598079975	-0.9498271462251019	-0.3118846440444654	-3.087759819515211e-08	-5.976851145210391e-08	9.954393506589037e-08	1.770823479844962e-08	-4.766931886268486e-08	4.574848842476692e-08	-2.54961740065653e-08
1.07	-0.07717239207793516	-0.06599590416023511	0.7554392694856081	1.094390451826614	-0.331729895720504	-0.01030908936376445	-0.9587450193223123	1.128089006936979	1.128089006937085	-0.09036375551168854	-0.1745328321319752	0.1884864792693768	0.02454070585027147	0.1582333947716427	0.0400222598020497	0.1413921511082968	-0.5763526426725307	0.001499709476986674	-0.1601902193693828	0.04311049586471875	-0.4466412143717591	-0.446641214371777	-0.01296735796160737	-2.39110283330834e-08	-0.0561014356374115	-0.0169688102048617	-0.3455682684103633	0.0162799625976466	-0.004753321611917377	-0.3107301106192577	0.07570636225817928	0.04772999650147361	0.4118894509137261	-24.86640389951158	-17.26598088153866	3.315836460272549	4.572663581222995	-779.4033209511166	-80.34710900198512	-2.553658396490425	0.6281382700811792	0.2230116679477726	1.061710718436842	-3.922297098189777	0.04310188600450236	-1.337869125035131	0.9667651258540253	-3.966973651916993	-3.966973651916259	-0.1867447916954171	0.006058417943293402	-0.9339584584612741	-0.2809287697679718	-3.332555854884176e-08	-6.886755501491824e-08	1.0605011514523e-07	1.824075018471191e-08	-5.104561925306334e-08	4.342386514708018e-08	-2.742840958274612e-08
